<svg width="152" height="88" viewBox="0 0 152 88" fill="none" xmlns="http://www.w3.org/2000/svg">
<path d="M11.852 60V21.856C11.852 21.0027 11.8307 19.936 11.788 18.656C11.7453 17.376 11.66 16.1173 11.532 14.88C11.4467 13.6427 11.2973 12.64 11.084 11.872L11.34 11.36H25.42V30.112L22.54 25.568C23.7773 25.056 25.1 24.6507 26.508 24.352C27.916 24.0533 29.6013 23.904 31.564 23.904C34.124 23.904 36.4067 24.2453 38.412 24.928C40.4173 25.6107 42.1027 26.6347 43.468 28C44.8333 29.3227 45.8787 31.008 46.604 33.056C47.3293 35.104 47.692 37.5147 47.692 40.288V60H34.124V40.288C34.124 38.8373 33.868 37.6853 33.356 36.832C32.844 35.9787 32.1187 35.36 31.18 34.976C30.284 34.592 29.2173 34.4 27.98 34.4C27.4253 34.4 26.7427 34.464 25.932 34.592C25.164 34.72 24.4813 34.8267 23.884 34.912C23.2867 34.9547 22.9667 34.9333 22.924 34.848L25.42 29.152V60H11.852Z" fill="#005BFE"/>
<path d="M71.2045 60.512C67.8338 60.512 64.8258 59.8293 62.1805 58.464C59.5778 57.0987 57.5298 55.136 56.0365 52.576C54.5432 49.9733 53.7965 46.8587 53.7965 43.232C53.7965 39.52 54.5432 36.3627 56.0365 33.76C57.5725 31.1147 59.6418 29.1093 62.2445 27.744C64.8472 26.336 67.7912 25.632 71.0765 25.632C74.4045 25.632 77.3485 26.3573 79.9085 27.808C82.4685 29.216 84.4952 31.2427 85.9885 33.888C87.4818 36.4907 88.2285 39.648 88.2285 43.36C88.2285 46.9867 87.5032 50.08 86.0525 52.64C84.6445 55.2 82.6605 57.1627 80.1005 58.528C77.5405 59.8507 74.5752 60.512 71.2045 60.512ZM71.0125 51.104C72.8045 51.104 74.2338 50.72 75.3005 49.952C76.3672 49.184 77.1138 48.2027 77.5405 47.008C78.0098 45.8133 78.2445 44.576 78.2445 43.296C78.2445 42.016 78.0098 40.736 77.5405 39.456C77.1138 38.176 76.3672 37.1307 75.3005 36.32C74.2765 35.4667 72.8472 35.04 71.0125 35.04C69.2205 35.04 67.7912 35.4667 66.7245 36.32C65.6578 37.1307 64.8898 38.176 64.4205 39.456C63.9512 40.6933 63.7165 41.9733 63.7165 43.296C63.7165 44.576 63.9512 45.8347 64.4205 47.072C64.9325 48.2667 65.7005 49.248 66.7245 50.016C67.7912 50.7413 69.2205 51.104 71.0125 51.104ZM93.4515 60V14.688H103.628V60H93.4515ZM125.883 60.512C120.806 60.512 116.88 59.232 114.107 56.672C111.376 54.112 110.011 50.2507 110.011 45.088V26.272H120.187V44.32C120.187 45.6427 120.358 46.8373 120.699 47.904C121.083 48.928 121.702 49.76 122.555 50.4C123.408 50.9973 124.518 51.296 125.883 51.296C127.419 51.296 128.571 50.9547 129.339 50.272C130.107 49.5893 130.598 48.7147 130.811 47.648C131.067 46.5387 131.195 45.4293 131.195 44.32V26.272H141.307V45.088C141.307 50.5067 139.92 54.432 137.147 56.864C134.416 59.296 130.662 60.512 125.883 60.512Z" fill="white"/>
<line x1="55" y1="69.5" x2="141" y2="69.5" stroke="white" stroke-width="11"/>
<line x1="135" y1="88" x2="135" y2="65" stroke="white" stroke-width="12"/>
</svg>
